{
  "accessors": [
    {
      "bufferView": 2,
      "componentType": 5126,
      "count": 5676,
      "max": [
        0.3625209927558899,
        0.5130379796028137,
        1.0525829792022705
      ],
      "min": [
        -0.3625209927558899,
        -0.48232200741767883,
        0.00014600000577047467
      ],
      "type": "VEC3"
    },
    {
      "bufferView": 2,
      "byteOffset": 68112,
      "componentType": 5126,
      "count": 5676,
      "max": [
        0.9999474287033081,
        0.9999734163284302,
        0.9999920129776001
      ],
      "min": [
        -0.9999474287033081,
        -0.9998416304588318,
        -1.0
      ],
      "type": "VEC3"
    },
    {
      "bufferView": 1,
      "componentType": 5126,
      "count": 5676,
      "max": [
        0.9983140230178833,
        0.878055989742279
      ],
      "min": [
        0.00010900000052060932,
        0.00010900000052060932
      ],
      "type": "VEC2"
    },
    {
      "bufferView": 0,
      "componentType": 5125,
      "count": 33216,
      "type": "SCALAR"
    }
  ],
  "asset": {
    "extras": {
      "author": "emilsvfx (https://sketchfab.com/emilsvfx)",
      "license": "CC-BY-4.0 (http://creativecommons.org/licenses/by/4.0/)",
      "source": "https://sketchfab.com/3d-models/rubber-duck-a84cecb600c04eeba60d02f99b8b154b",
      "title": "Rubber Duck"
    },
    "generator": "Sketchfab-12.66.0",
    "version": "2.0"
  },
  "bufferViews": [
    {
      "buffer": 0,
      "byteLength": 132864,
      "name": "floatBufferViews",
      "target": 34963
    },
    {
      "buffer": 0,
      "byteLength": 45408,
      "byteOffset": 132864,
      "byteStride": 8,
      "name": "floatBufferViews",
      "target": 34962
    },
    {
      "buffer": 0,
      "byteLength": 136224,
      "byteOffset": 178272,
      "byteStride": 12,
      "name": "floatBufferViews",
      "target": 34962
    }
  ],
  "buffers": [
    {
      "byteLength": 314496,
      "uri": "scene.bin"
    }
  ],
  "images": [
    {
      "uri": "textures/Duck_baseColor.png"
    }
  ],
  "materials": [
    {
      "doubleSided": true,
      "name": "Duck",
      "pbrMetallicRoughness": {
        "baseColorTexture": {
          "index": 0
        },
        "metallicFactor": 0.0,
        "roughnessFactor": 0.843491542
      }
    }
  ],
  "meshes": [
    {
      "name": "Object_0",
      "primitives": [
        {
          "attributes": {
            "NORMAL": 1,
            "POSITION": 0,
            "TEXCOORD_0": 2
          },
          "indices": 3,
          "material": 0,
          "mode": 4
        }
      ]
    }
  ],
  "nodes": [
    {
      "children": [
        1
      ],
      "matrix": [
        1.0,
        0.0,
        0.0,
        0.0,
        0.0,
        2.220446049250313e-16,
        -1.0,
        0.0,
        0.0,
        1.0,
        2.220446049250313e-16,
        0.0,
        0.0,
        0.0,
        0.0,
        1.0
      ],
      "name": "Sketchfab_model"
    },
    {
      "children": [
        2
      ],
      "name": "duck.obj.cleaner.materialmerger.gles"
    },
    {
      "mesh": 0,
      "name": "Object_2"
    }
  ],
  "samplers": [
    {
      "magFilter": 9729,
      "minFilter": 9987,
      "wrapS": 10497,
      "wrapT": 10497
    }
  ],
  "scene": 0,
  "scenes": [
    {
      "name": "Sketchfab_Scene",
      "nodes": [
        0
      ]
    }
  ],
  "textures": [
    {
      "sampler": 0,
      "source": 0
    }
  ]
}
