<!--?xml version="1.0" standalone="no"?-->
              <svg id="sw-js-blob-svg" viewBox="0 0 100 100" xmlns="http://www.w3.org/2000/svg" version="1.1">
                    <defs> 
                        <linearGradient id="sw-gradient" x1="0" x2="1" y1="1" y2="0">
                            <stop id="stop1" stop-color="rgba(248, 117, 55, 1)" offset="0%"></stop>
                            <stop id="stop2" stop-color="rgba(251, 168, 31, 1)" offset="100%"></stop>
                        </linearGradient>
                    </defs>
                <path fill="url(#sw-gradient)" d="M19.9,-30.5C26.1,-27,31.6,-22,35.5,-15.6C39.3,-9.2,41.5,-1.5,40.7,6C39.8,13.5,36,20.7,31,27.3C25.9,33.9,19.7,39.9,12.3,42.3C4.9,44.6,-3.7,43.4,-12.3,41.2C-20.8,39,-29.3,35.8,-34.6,29.9C-39.8,23.9,-41.9,15.1,-42.4,6.6C-42.9,-2,-41.9,-10.3,-37.8,-16.4C-33.7,-22.4,-26.5,-26.2,-19.7,-29.4C-12.8,-32.6,-6.4,-35.2,0.2,-35.5C6.9,-35.9,13.7,-34,19.9,-30.5Z" width="100%" height="100%" transform="translate(50 50)" stroke-width="0" style="transition: 0.3s;"></path>
              </svg>